<?xml version="1.0" encoding="UTF-8"?>
<!DOCTYPE svg PUBLIC "-//W3C//DTD SVG 1.1//EN" "http://www.w3.org/Graphics/SVG/1.1/DTD/svg11.dtd">
<svg xmlns="http://www.w3.org/2000/svg" version="1.1" width="256px" height="256px" style="shape-rendering:geometricPrecision; text-rendering:geometricPrecision; image-rendering:optimizeQuality; fill-rule:evenodd; clip-rule:evenodd" xmlns:xlink="http://www.w3.org/1999/xlink">
<g><path style="opacity:0.997" fill="#fefefe" d="M 43.5,54.5 C 49.8333,61.5 56.5,68.1667 63.5,74.5C 77.1667,88.8333 91.1667,102.833 105.5,116.5C 112.464,123.965 119.631,131.298 127,138.5C 139.702,125.965 152.202,113.298 164.5,100.5C 173.167,92.5 181.5,84.1667 189.5,75.5C 194.833,70.8333 199.833,65.8333 204.5,60.5C 206.833,58.8333 208.833,56.8333 210.5,54.5C 211.167,54.5 211.833,54.5 212.5,54.5C 213.759,56.6044 215.259,58.6044 217,60.5C 229.695,73.2105 242.528,85.5438 255.5,97.5C 255.5,98.1667 255.5,98.8333 255.5,99.5C 251.9,101.43 248.9,104.097 246.5,107.5C 239.167,114.167 232.167,121.167 225.5,128.5C 192.828,161.005 159.995,193.339 127,225.5C 102.564,202.113 78.731,178.446 55.5,154.5C 36.8333,135.833 18.1667,117.167 -0.5,98.5C -0.5,97.5 -0.5,96.5 -0.5,95.5C 12.2916,82.7112 24.9583,69.8778 37.5,57C 39.1691,55.331 41.1691,54.4977 43.5,54.5 Z"/></g>
<g><path style="opacity:0.375" fill="#d7d7d7" d="M 210.5,54.5 C 208.833,56.8333 206.833,58.8333 204.5,60.5C 203.662,60.1583 203.328,59.4916 203.5,58.5C 204.777,55.4483 207.11,54.1149 210.5,54.5 Z"/></g>
<g><path style="opacity:0.482" fill="#eaeaea" d="M 203.5,58.5 C 203.328,59.4916 203.662,60.1583 204.5,60.5C 199.833,65.8333 194.833,70.8333 189.5,75.5C 188.662,75.1583 188.328,74.4916 188.5,73.5C 193.167,68.1667 198.167,63.1667 203.5,58.5 Z"/></g>
<g><path style="opacity:0.564" fill="#eaeaea" d="M 43.5,54.5 C 45.288,54.2148 46.9547,54.5481 48.5,55.5C 53.4939,61.1606 58.8273,66.4939 64.5,71.5C 64.7373,72.791 64.404,73.791 63.5,74.5C 56.5,68.1667 49.8333,61.5 43.5,54.5 Z"/></g>
<g><path style="opacity:0.52" fill="#f0f0f0" d="M 188.5,73.5 C 188.328,74.4916 188.662,75.1583 189.5,75.5C 181.5,84.1667 173.167,92.5 164.5,100.5C 163.662,100.158 163.328,99.4916 163.5,98.5C 171.5,89.8333 179.833,81.5 188.5,73.5 Z"/></g>
<g><path style="opacity:0.276" fill="#e1e1e1" d="M 212.5,54.5 C 213.675,54.281 214.675,54.6143 215.5,55.5C 228.854,68.8543 242.188,82.1877 255.5,95.5C 255.5,96.1667 255.5,96.8333 255.5,97.5C 242.528,85.5438 229.695,73.2105 217,60.5C 215.259,58.6044 213.759,56.6044 212.5,54.5 Z"/></g>
<g><path style="opacity:0.611" fill="#f1f1f1" d="M 64.5,71.5 C 78.8353,85.502 92.8353,99.8353 106.5,114.5C 106.672,115.492 106.338,116.158 105.5,116.5C 91.1667,102.833 77.1667,88.8333 63.5,74.5C 64.404,73.791 64.7373,72.791 64.5,71.5 Z"/></g>
<g><path style="opacity:0.62" fill="#f5f5f5" d="M 163.5,98.5 C 163.328,99.4916 163.662,100.158 164.5,100.5C 152.202,113.298 139.702,125.965 127,138.5C 119.631,131.298 112.464,123.965 105.5,116.5C 106.338,116.158 106.672,115.492 106.5,114.5C 113.599,120.818 120.432,127.484 127,134.5C 139.035,122.298 151.202,110.298 163.5,98.5 Z"/></g>
<g><path style="opacity:0.297" fill="#d6d6d6" d="M 255.5,99.5 C 255.5,100.5 255.5,101.5 255.5,102.5C 252.833,104.833 250.167,107.167 247.5,109.5C 246.662,109.158 246.328,108.492 246.5,107.5C 248.9,104.097 251.9,101.43 255.5,99.5 Z"/></g>
<g><path style="opacity:0.611" fill="#efefef" d="M -0.5,98.5 C 18.1667,117.167 36.8333,135.833 55.5,154.5C 55.6716,155.492 55.3382,156.158 54.5,156.5C 35.7813,138.78 17.4479,120.78 -0.5,102.5C -0.5,101.167 -0.5,99.8333 -0.5,98.5 Z"/></g>
<g><path style="opacity:0.664" fill="#e7e7e7" d="M 246.5,107.5 C 246.328,108.492 246.662,109.158 247.5,109.5C 241.167,116.5 234.5,123.167 227.5,129.5C 226.833,129.167 226.167,128.833 225.5,128.5C 232.167,121.167 239.167,114.167 246.5,107.5 Z"/></g>
<g><path style="opacity:0.65" fill="#f5f5f5" d="M 225.5,128.5 C 226.167,128.833 226.833,129.167 227.5,129.5C 195.854,161.479 164.188,193.479 132.5,225.5C 128.211,227.006 124.211,226.506 120.5,224C 99.0541,201.887 77.2208,180.054 55,158.5C 54.5357,157.906 54.369,157.239 54.5,156.5C 55.3382,156.158 55.6716,155.492 55.5,154.5C 78.731,178.446 102.564,202.113 127,225.5C 159.995,193.339 192.828,161.005 225.5,128.5 Z"/></g>
</svg>
