<svg id="SvgjsSvg1001" width="288" height="288" xmlns="http://www.w3.org/2000/svg" version="1.1" xmlns:xlink="http://www.w3.org/1999/xlink" xmlns:svgjs="http://svgjs.com/svgjs"><defs id="SvgjsDefs1002"></defs><g id="SvgjsG1008" transform="matrix(1,0,0,1,0,0)"><svg xmlns="http://www.w3.org/2000/svg" width="288" height="288" fill-rule="evenodd" clip-rule="evenodd" image-rendering="optimizeQuality" shape-rendering="geometricPrecision" text-rendering="geometricPrecision"><path d="M 255.5,119.5 C 255.5,120.5 255.5,121.5 255.5,122.5C 254.167,123.5 254.167,124.5 255.5,125.5C 255.5,126.167 255.5,126.833 255.5,127.5C 251.253,187.258 220.753,226.925 164,246.5C 120.53,256.39 81.6967,246.557 47.5,217C 42.6168,211.405 37.6168,205.905 32.5,200.5C 21.4817,208.525 10.4817,216.525 -0.5,224.5C -0.5,221.5 -0.5,218.5 -0.5,215.5C 3.89524,192.413 7.5619,169.08 10.5,145.5C 34.9515,148.5 58.4515,152.167 81,156.5C 83.2884,156.263 85.7884,156.263 88.5,156.5C 88.33,157.822 88.6634,158.989 89.5,160C 78.3621,166.797 67.3621,174.464 56.5,183C 83.1542,214.648 116.488,225.982 156.5,217C 193.034,205.459 215.534,180.959 224,143.5C 229.56,94.4379 210.06,59.6046 165.5,39C 133.921,27.508 103.587,31.8413 74.5,52C 54.4144,67.6673 42.7477,88.1673 39.5,113.5C 29.2185,112.495 19.2185,111.162 9.5,109.5C 19.8232,56.4788 50.6565,21.8121 102,5.5C 159.681,-5.41993 205.347,14.2467 239,64.5C 247.396,79.7589 252.563,95.4255 254.5,111.5C 253.782,114.258 254.115,116.925 255.5,119.5 Z" opacity=".91" fill="#ffffff" class="color000 svgShape"></path><path d="M 106.5,43.5 C 116.833,43.5 127.167,43.5 137.5,43.5C 137.5,69.8333 137.5,96.1667 137.5,122.5C 158.322,133.841 178.822,145.841 199,158.5C 199.667,160.167 199.667,161.833 199,163.5C 195.023,170.152 191.023,176.819 187,183.5C 160.061,168.319 133.394,152.653 107,136.5C 106.5,105.502 106.333,74.5018 106.5,43.5 Z" opacity=".896" fill="#ffffff" class="color000 svgShape"></path></svg></g></svg>