<?xml version="1.0" encoding="UTF-8"?>
<!DOCTYPE svg PUBLIC "-//W3C//DTD SVG 1.1//EN" "http://www.w3.org/Graphics/SVG/1.1/DTD/svg11.dtd">
<svg xmlns="http://www.w3.org/2000/svg" version="1.1" width="256px" height="256px" style="shape-rendering:geometricPrecision; text-rendering:geometricPrecision; image-rendering:optimizeQuality; fill-rule:evenodd; clip-rule:evenodd" xmlns:xlink="http://www.w3.org/1999/xlink">
<g><path style="opacity:0.983" fill="#fefffe" d="M 110.5,-0.5 C 121.833,-0.5 133.167,-0.5 144.5,-0.5C 193.947,8.43906 228.447,36.1057 248,82.5C 251.154,91.7935 253.654,101.127 255.5,110.5C 255.5,121.833 255.5,133.167 255.5,144.5C 246.561,193.947 218.894,228.447 172.5,248C 163.207,251.154 153.873,253.654 144.5,255.5C 133.167,255.5 121.833,255.5 110.5,255.5C 61.0534,246.561 26.5534,218.894 7,172.5C 3.84552,163.207 1.34552,153.873 -0.5,144.5C -0.5,133.167 -0.5,121.833 -0.5,110.5C 8.43906,61.0534 36.1057,26.5534 82.5,7C 91.7935,3.84552 101.127,1.34552 110.5,-0.5 Z M 77.5,66.5 C 80.9783,66.1842 84.3117,66.6842 87.5,68C 100.681,81.3475 114.014,94.5141 127.5,107.5C 140.986,94.5141 154.319,81.3475 167.5,68C 179.126,65.076 186.46,69.576 189.5,81.5C 189.237,84.0278 188.404,86.3611 187,88.5C 173.986,101.681 160.819,114.681 147.5,127.5C 160.819,141.319 174.319,154.986 188,168.5C 189.318,171.406 189.652,174.406 189,177.5C 185.412,183.437 180.412,187.437 174,189.5C 172.033,189.458 170.199,188.958 168.5,188C 155.292,174.458 141.792,161.291 128,148.5C 114.541,160.958 101.374,173.791 88.5,187C 85.4536,189.174 82.1202,189.841 78.5,189C 71.8163,185.999 67.8163,180.999 66.5,174C 66.4944,171.7 66.9944,169.534 68,167.5C 81.3475,154.319 94.5141,140.986 107.5,127.5C 94.1808,113.681 80.6808,100.014 67,86.5C 66.1628,82.7054 66.4961,79.0387 68,75.5C 71.0623,72.2678 74.229,69.2678 77.5,66.5 Z"/></g>
</svg>
