<?xml version="1.0" encoding="UTF-8"?>
<!DOCTYPE svg PUBLIC "-//W3C//DTD SVG 1.1//EN" "http://www.w3.org/Graphics/SVG/1.1/DTD/svg11.dtd">
<svg xmlns="http://www.w3.org/2000/svg" version="1.1" width="256px" height="256px" style="shape-rendering:geometricPrecision; text-rendering:geometricPrecision; image-rendering:optimizeQuality; fill-rule:evenodd; clip-rule:evenodd" xmlns:xlink="http://www.w3.org/1999/xlink">
<g><path style="opacity:0.987" fill="#fefffe" d="M 95.5,-0.5 C 116.833,-0.5 138.167,-0.5 159.5,-0.5C 159.5,31.5 159.5,63.5 159.5,95.5C 180.836,95.3334 202.169,95.5 223.5,96C 191.653,128.014 159.653,159.847 127.5,191.5C 95.347,159.847 63.347,128.014 31.5,96C 52.8307,95.5 74.1641,95.3334 95.5,95.5C 95.5,63.5 95.5,31.5 95.5,-0.5 Z"/></g>
<g><path style="opacity:0.962" fill="#fefffe" d="M -0.5,222.5 C 84.8333,222.5 170.167,222.5 255.5,222.5C 255.5,233.5 255.5,244.5 255.5,255.5C 170.167,255.5 84.8333,255.5 -0.5,255.5C -0.5,244.5 -0.5,233.5 -0.5,222.5 Z"/></g>
</svg>
