<?xml version="1.0" encoding="UTF-8"?>
<!DOCTYPE svg PUBLIC "-//W3C//DTD SVG 1.1//EN" "http://www.w3.org/Graphics/SVG/1.1/DTD/svg11.dtd">
<svg xmlns="http://www.w3.org/2000/svg" version="1.1" width="256px" height="256px" style="shape-rendering:geometricPrecision; text-rendering:geometricPrecision; image-rendering:optimizeQuality; fill-rule:evenodd; clip-rule:evenodd" xmlns:xlink="http://www.w3.org/1999/xlink">
<g><path style="opacity:0.964" fill="#fefffe" d="M -0.5,-0.5 C 21.1667,-0.5 42.8333,-0.5 64.5,-0.5C 64.5,10.5 64.5,21.5 64.5,32.5C 53.8333,32.5 43.1667,32.5 32.5,32.5C 32.5,95.8333 32.5,159.167 32.5,222.5C 95.8333,222.5 159.167,222.5 222.5,222.5C 222.5,211.833 222.5,201.167 222.5,190.5C 233.5,190.5 244.5,190.5 255.5,190.5C 255.5,212.167 255.5,233.833 255.5,255.5C 170.167,255.5 84.8333,255.5 -0.5,255.5C -0.5,170.167 -0.5,84.8333 -0.5,-0.5 Z"/></g>
<g><path style="opacity:0.976" fill="#fefffe" d="M 127.5,-0.5 C 170.167,-0.5 212.833,-0.5 255.5,-0.5C 255.5,42.1667 255.5,84.8333 255.5,127.5C 238.919,112.421 222.752,96.7544 207,80.5C 180.833,106.667 154.667,132.833 128.5,159C 127.833,159.667 127.167,159.667 126.5,159C 115.986,148.653 105.652,138.153 95.5,127.5C 121.653,100.847 147.986,74.3471 174.5,48C 158.246,32.248 142.579,16.0814 127.5,-0.5 Z"/></g>
</svg>
